<svg xmlns="http://www.w3.org/2000/svg" viewBox="0 0 200 200" width="200" height="200">
  <defs>
    <linearGradient id="akabGradient" x1="0%" y1="0%" x2="100%" y2="100%">
      <stop offset="0%" style="stop-color:#0D9488;stop-opacity:1" />
      <stop offset="100%" style="stop-color:#14B8A6;stop-opacity:1" />
    </linearGradient>
  </defs>
  
  <!-- Background Circle -->
  <circle cx="100" cy="100" r="95" fill="url(#akabGradient)"/>
  
  <!-- Open Book -->
  <path d="M 50 90 Q 50 75 65 75 L 95 75 L 95 125 L 65 125 Q 50 125 50 110 Z" 
        fill="white" stroke="white" stroke-width="2"/>
  <path d="M 150 90 Q 150 75 135 75 L 105 75 L 105 125 L 135 125 Q 150 125 150 110 Z" 
        fill="white" stroke="white" stroke-width="2"/>
  
  <!-- Braille Dots (3 dots representing accessibility) -->
  <circle cx="70" cy="90" r="3" fill="#0D9488"/>
  <circle cx="70" cy="100" r="3" fill="#0D9488"/>
  <circle cx="70" cy="110" r="3" fill="#0D9488"/>
  
  <circle cx="130" cy="90" r="3" fill="#0D9488"/>
  <circle cx="130" cy="100" r="3" fill="#0D9488"/>
  <circle cx="130" cy="110" r="3" fill="#0D9488"/>
  
  <!-- Helping Hand Symbol -->
  <path d="M 100 55 L 95 60 L 100 65 L 105 60 Z" fill="#FF9800" stroke="#FF9800" stroke-width="2"/>
  <ellipse cx="100" cy="50" rx="8" ry="6" fill="#FF9800"/>
</svg>
