<svg xmlns="http://www.w3.org/2000/svg" viewBox="0 0 200 200" width="200" height="200">
  <defs>
    <linearGradient id="alghazaliGradient" x1="0%" y1="0%" x2="100%" y2="100%">
      <stop offset="0%" style="stop-color:#1E40AF;stop-opacity:1" />
      <stop offset="100%" style="stop-color:#3B82F6;stop-opacity:1" />
    </linearGradient>
  </defs>
  
  <!-- Background Circle -->
  <circle cx="100" cy="100" r="95" fill="url(#alghazaliGradient)"/>
  
  <!-- Book/Education Symbol -->
  <path d="M 60 80 L 100 65 L 140 80 L 140 130 L 100 145 L 60 130 Z" 
        fill="white" opacity="0.9"/>
  
  <!-- Book Pages -->
  <line x1="100" y1="65" x2="100" y2="145" stroke="#1E40AF" stroke-width="2"/>
  <line x1="70" y1="90" x2="90" y2="90" stroke="#1E40AF" stroke-width="1.5"/>
  <line x1="70" y1="100" x2="90" y2="100" stroke="#1E40AF" stroke-width="1.5"/>
  <line x1="70" y1="110" x2="90" y2="110" stroke="#1E40AF" stroke-width="1.5"/>
  <line x1="110" y1="90" x2="130" y2="90" stroke="#1E40AF" stroke-width="1.5"/>
  <line x1="110" y1="100" x2="130" y2="100" stroke="#1E40AF" stroke-width="1.5"/>
  <line x1="110" y1="110" x2="130" y2="110" stroke="#1E40AF" stroke-width="1.5"/>
  
  <!-- Graduation Cap Top -->
  <path d="M 100 50 L 75 60 L 100 70 L 125 60 Z" fill="#FCD34D"/>
  
  <!-- Cap Tassel -->
  <circle cx="125" cy="60" r="3" fill="#DC2626"/>
  <line x1="125" y1="60" x2="130" y2="70" stroke="#DC2626" stroke-width="2"/>
</svg>
